<?xml version="1.0" encoding="UTF-8"?>
<svg width="622px" height="206px" viewBox="0 0 622 206" version="1.1" xmlns="http://www.w3.org/2000/svg" xmlns:xlink="http://www.w3.org/1999/xlink">
    <!-- Generator: Sketch 43.2 (39069) - http://www.bohemiancoding.com/sketch -->
    <title>Logo</title>
    <desc>Created with Sketch.</desc>
    <defs></defs>
    <g id="Page-1" stroke="none" stroke-width="1" fill="none" fill-rule="evenodd">
        <g id="Artboard" transform="translate(-131.000000, -140.000000)">
            <g id="Logo" transform="translate(131.000000, 140.000000)">
                <rect id="Rectangle" stroke="#FFFFFF" stroke-width="4" x="380" y="65" width="76" height="74" rx="6"></rect>
                <rect id="Rectangle" stroke="#FFFFFF" stroke-width="6" x="399" y="35" width="138" height="138" rx="8"></rect>
                <rect id="Rectangle" stroke="#FFFFFF" stroke-width="8" x="420" y="4" width="198" height="198" rx="10"></rect>
                <path d="M0.074,141 L0.074,65.02 L60.334,65.02 C65.0500236,65.02 69.0673167,66.6793167 72.386,69.998 C75.7046833,73.3166833 77.364,77.3339764 77.364,82.05 L77.364,141 L63.216,141 L63.216,84.015 C63.216,82.0936571 62.8885033,80.8055033 62.2335,80.1505 C61.5784967,79.4954967 60.2903429,79.168 58.369,79.168 L19.069,79.168 C17.1476571,79.168 15.8595033,79.4954967 15.2045,80.1505 C14.5494967,80.8055033 14.222,82.0936571 14.222,84.015 L14.222,141 L0.074,141 Z M105.398,141 C100.681976,141 96.6646833,139.340683 93.346,136.022 C90.0273167,132.703317 88.368,128.686024 88.368,123.97 L88.368,82.05 C88.368,77.3339764 90.0273167,73.3166833 93.346,69.998 C96.6646833,66.6793167 100.681976,65.02 105.398,65.02 L148.628,65.02 C153.344024,65.02 157.361317,66.6793167 160.68,69.998 C163.998683,73.3166833 165.658,77.3339764 165.658,82.05 L165.658,123.97 C165.658,128.686024 163.998683,132.703317 160.68,136.022 C157.361317,139.340683 153.344024,141 148.628,141 L105.398,141 Z M107.363,126.852 L146.663,126.852 C148.584343,126.852 149.850664,126.524503 150.462,125.8695 C151.073336,125.214497 151.379,123.926343 151.379,122.005 L151.379,84.015 C151.379,82.0936571 151.073336,80.8055033 150.462,80.1505 C149.850664,79.4954967 148.584343,79.168 146.663,79.168 L107.363,79.168 C105.441657,79.168 104.153503,79.4954967 103.4985,80.1505 C102.843497,80.8055033 102.516,82.0936571 102.516,84.015 L102.516,122.005 C102.516,123.926343 102.843497,125.214497 103.4985,125.8695 C104.153503,126.524503 105.441657,126.852 107.363,126.852 Z M192.382,141 C187.665976,141 183.648683,139.340683 180.33,136.022 C177.011317,132.703317 175.352,128.686024 175.352,123.97 L175.352,82.05 C175.352,77.3339764 177.011317,73.3166833 180.33,69.998 C183.648683,66.6793167 187.665976,65.02 192.382,65.02 L238.494,65.02 L238.494,40.13 L252.642,40.13 L252.642,141 L192.382,141 Z M194.478,126.852 L233.778,126.852 C235.699343,126.852 236.965664,126.524503 237.577,125.8695 C238.188336,125.214497 238.494,123.926343 238.494,122.005 L238.494,84.015 C238.494,82.0936571 238.188336,80.8055033 237.577,80.1505 C236.965664,79.4954967 235.699343,79.168 233.778,79.168 L194.478,79.168 C192.556657,79.168 191.268503,79.4954967 190.6135,80.1505 C189.958497,80.8055033 189.631,82.0936571 189.631,84.015 L189.631,122.005 C189.631,123.926343 189.958497,125.214497 190.6135,125.8695 C191.268503,126.524503 192.556657,126.852 194.478,126.852 Z M280.676,141 C275.959976,141 271.942683,139.340683 268.624,136.022 C265.305317,132.703317 263.646,128.686024 263.646,123.97 L263.646,82.05 C263.646,77.3339764 265.305317,73.3166833 268.624,69.998 C271.942683,66.6793167 275.959976,65.02 280.676,65.02 L323.906,65.02 C328.622024,65.02 332.639317,66.6793167 335.958,69.998 C339.276683,73.3166833 340.936,77.3339764 340.936,82.05 L340.936,110.084 L277.794,110.084 L277.794,122.005 C277.794,123.926343 278.121497,125.214497 278.7765,125.8695 C279.431503,126.524503 280.719657,126.852 282.641,126.852 L340.936,126.852 L340.936,141 L280.676,141 Z M277.794,96.853 L326.657,96.853 L326.657,84.015 C326.657,82.0936571 326.351336,80.8055033 325.74,80.1505 C325.128664,79.4954967 323.862343,79.168 321.941,79.168 L282.641,79.168 C280.719657,79.168 279.431503,79.4954967 278.7765,80.1505 C278.121497,80.8055033 277.794,82.0936571 277.794,84.015 L277.794,96.853 Z" id="node" fill="#FFFFFF"></path>
                <path d="M1.55465002,53 L1.55465002,34.0279997 L16.0998502,34.0279997 C17.1011553,34.0279997 17.9619133,34.3881128 18.6821503,35.1083497 C19.4023872,35.8285867 19.7625003,36.6893448 19.7625003,37.6906498 L19.7625003,41.4059998 C19.7625003,41.6343676 19.7449338,41.8539488 19.7098003,42.0647498 C19.6746668,42.2755509 19.6131841,42.4775655 19.5253503,42.6707999 C19.8239851,43.0748352 20.0655244,43.496431 20.2499753,43.9355999 C20.4344262,44.3747687 20.5266503,44.813931 20.5266503,45.2530999 L20.5266503,49.3373499 C20.5266503,50.338655 20.1665372,51.199413 19.4463003,51.91965 C18.7260633,52.6398869 17.856522,53 16.8376502,53 L1.55465002,53 Z M5.95510009,49.4954499 L16.0998502,49.4954499 C16.5741526,49.4954499 16.8464332,49.4647086 16.9167002,49.4032249 C16.9869673,49.3417413 17.0221002,49.0650691 17.0221002,48.5731999 L17.0221002,46.0172499 C17.0221002,45.5253808 16.9869673,45.2487085 16.9167002,45.1872249 C16.8464332,45.1257412 16.5741526,45.0949999 16.0998502,45.0949999 L5.95510009,45.0949999 C5.46323095,45.0949999 5.18655872,45.1257412 5.12507507,45.1872249 C5.06359143,45.2487085 5.03285007,45.5253808 5.03285007,46.0172499 L5.03285007,48.5731999 C5.03285007,49.0650691 5.06359143,49.3417413 5.12507507,49.4032249 C5.18655872,49.4647086 5.46323095,49.4954499 5.95510009,49.4954499 Z M5.95510009,41.5904498 L15.3357002,41.5904498 C15.8275694,41.5904498 16.09985,41.5597085 16.1525502,41.4982248 C16.2052505,41.4367412 16.2316002,41.160069 16.2316002,40.6681998 L16.2316002,38.4547998 C16.2316002,37.9629307 16.2052505,37.6862584 16.1525502,37.6247748 C16.09985,37.5632911 15.8275694,37.5325498 15.3357002,37.5325498 L5.95510009,37.5325498 C5.46323095,37.5325498 5.18655872,37.5632911 5.12507507,37.6247748 C5.06359143,37.6862584 5.03285007,37.9629307 5.03285007,38.4547998 L5.03285007,40.6681998 C5.03285007,41.160069 5.06359143,41.4367412 5.12507507,41.4982248 C5.18655872,41.5597085 5.46323095,41.5904498 5.95510009,41.5904498 Z M23.2934003,53 L23.2934003,34.0279997 L26.7452504,34.0279997 L26.7452504,53 L23.2934003,53 Z M36.2049005,53 L36.2049005,37.5325498 L28.4580004,37.5325498 L28.4580004,34.0279997 L47.4300007,34.0279997 L47.4300007,37.5325498 L39.7094506,37.5325498 L39.7094506,53 L36.2049005,53 Z M53.0689008,53 C52.0675957,53 51.2068377,52.6398869 50.4866007,51.91965 C49.7663638,51.199413 49.4062507,50.338655 49.4062507,49.3373499 L49.4062507,37.6906498 C49.4062507,36.6893448 49.7663638,35.8285867 50.4866007,35.1083497 C51.2068377,34.3881128 52.0675957,34.0279997 53.0689008,34.0279997 L68.325551,34.0279997 L68.325551,37.5325498 L53.8067008,37.5325498 C53.3148316,37.5325498 53.0381594,37.5632911 52.9766758,37.6247748 C52.9151921,37.6862584 52.8844508,37.9629307 52.8844508,38.4547998 L52.8844508,48.5731999 C52.8844508,49.0650691 52.9151921,49.3417413 52.9766758,49.4032249 C53.0381594,49.4647086 53.3148316,49.4954499 53.8067008,49.4954499 L68.325551,49.4954499 L68.325551,53 L53.0689008,53 Z M74.6759011,53 C73.6745961,53 72.813838,52.6398869 72.093601,51.91965 C71.3733641,51.199413 71.013251,50.338655 71.013251,49.3373499 L71.013251,37.6906498 C71.013251,36.6893448 71.3733641,35.8285867 72.093601,35.1083497 C72.813838,34.3881128 73.6745961,34.0279997 74.6759011,34.0279997 L86.3226012,34.0279997 C87.3239063,34.0279997 88.1846643,34.3881128 88.9049013,35.1083497 C89.6251382,35.8285867 89.9852513,36.6893448 89.9852513,37.6906498 L89.9852513,49.3373499 C89.9852513,50.338655 89.6251382,51.199413 88.9049013,51.91965 C88.1846643,52.6398869 87.3239063,53 86.3226012,53 L74.6759011,53 Z M75.4137011,49.4954499 L85.5584512,49.4954499 C86.0327536,49.4954499 86.3050342,49.4647086 86.3753013,49.4032249 C86.4455683,49.3417413 86.4807013,49.0650691 86.4807013,48.5731999 L86.4807013,38.4547998 C86.4807013,37.9629307 86.4455683,37.6862584 86.3753013,37.6247748 C86.3050342,37.5632911 86.0327536,37.5325498 85.5584512,37.5325498 L75.4137011,37.5325498 C74.921832,37.5325498 74.6451597,37.5632911 74.5836761,37.6247748 C74.5221924,37.6862584 74.4914511,37.9629307 74.4914511,38.4547998 L74.4914511,48.5731999 C74.4914511,49.0650691 74.5221924,49.3417413 74.5836761,49.4032249 C74.6451597,49.4647086 74.921832,49.4954499 75.4137011,49.4954499 Z M92.7783513,53 L92.7783513,34.0279997 L96.2302014,34.0279997 L96.2302014,53 L92.7783513,53 Z M98.5226514,53 L98.5226514,34.0279997 L102.343401,34.0279997 L113.990102,47.8880999 L113.990102,34.0279997 L117.494652,34.0279997 L117.494652,53 L113.673902,53 L102.000851,39.1135498 L102.000851,53 L98.5226514,53 Z M124.108502,53 C123.107197,53 122.246439,52.6398869 121.526202,51.91965 C120.805965,51.199413 120.445852,50.338655 120.445852,49.3373499 L120.445852,37.6906498 C120.445852,36.6893448 120.805965,35.8285867 121.526202,35.1083497 C122.246439,34.3881128 123.107197,34.0279997 124.108502,34.0279997 L139.365152,34.0279997 L139.365152,37.5325498 L124.846302,37.5325498 C124.354433,37.5325498 124.07776,37.5632911 124.016277,37.6247748 C123.954793,37.6862584 123.924052,37.9629307 123.924052,38.4547998 L123.924052,48.5731999 C123.924052,49.0650691 123.954793,49.3417413 124.016277,49.4032249 C124.07776,49.4647086 124.354433,49.4954499 124.846302,49.4954499 L139.365152,49.4954499 L139.365152,53 L124.108502,53 Z M142.158252,53 L142.158252,37.6906498 C142.158252,36.6893448 142.518365,35.8285867 143.238602,35.1083497 C143.958839,34.3881128 144.819597,34.0279997 145.820902,34.0279997 L157.441252,34.0279997 C158.460124,34.0279997 159.329665,34.3881128 160.049902,35.1083497 C160.770139,35.8285867 161.130252,36.6893448 161.130252,37.6906498 L161.130252,53 L157.625702,53 L157.625702,46.6232999 L145.636452,46.6232999 L145.636452,53 L142.158252,53 Z M145.636452,43.1450999 L157.625702,43.1450999 L157.625702,38.4547998 C157.625702,37.9629307 157.590569,37.6862584 157.520302,37.6247748 C157.450035,37.5632911 157.177755,37.5325498 156.703452,37.5325498 L146.558702,37.5325498 C146.066833,37.5325498 145.790161,37.5632911 145.728677,37.6247748 C145.667193,37.6862584 145.636452,37.9629307 145.636452,38.4547998 L145.636452,43.1450999 Z M167.717752,53 C166.716447,53 165.855689,52.6398869 165.135452,51.91965 C164.415215,51.199413 164.055102,50.338655 164.055102,49.3373499 L164.055102,47.8880999 L167.533302,47.8880999 L167.533302,48.5731999 C167.533302,49.0650691 167.564044,49.3417413 167.625527,49.4032249 C167.687011,49.4647086 167.963683,49.4954499 168.455552,49.4954499 L178.600303,49.4954499 C179.092172,49.4954499 179.368844,49.4647086 179.430328,49.4032249 C179.491811,49.3417413 179.522553,49.0650691 179.522553,48.5731999 L179.522553,46.1753499 C179.522553,45.6834808 179.491811,45.4112002 179.430328,45.3584999 C179.368844,45.3057996 179.092172,45.2794499 178.600303,45.2794499 L167.717752,45.2794499 C166.716447,45.2794499 165.855689,44.9149452 165.135452,44.1859249 C164.415215,43.4569046 164.055102,42.5917549 164.055102,41.5904498 L164.055102,37.6906498 C164.055102,36.6893448 164.415215,35.8285867 165.135452,35.1083497 C165.855689,34.3881128 166.716447,34.0279997 167.717752,34.0279997 L179.364453,34.0279997 C180.365758,34.0279997 181.226516,34.3881128 181.946753,35.1083497 C182.66699,35.8285867 183.027103,36.6893448 183.027103,37.6906498 L183.027103,39.1398998 L179.522553,39.1398998 L179.522553,38.4547998 C179.522553,37.9629307 179.491811,37.6862584 179.430328,37.6247748 C179.368844,37.5632911 179.092172,37.5325498 178.600303,37.5325498 L168.455552,37.5325498 C167.963683,37.5325498 167.687011,37.5632911 167.625527,37.6247748 C167.564044,37.6862584 167.533302,37.9629307 167.533302,38.4547998 L167.533302,40.8526498 C167.533302,41.344519 167.564044,41.6167996 167.625527,41.6694998 C167.687011,41.7222001 167.963683,41.7485498 168.455552,41.7485498 L179.364453,41.7485498 C180.365758,41.7485498 181.226516,42.1130545 181.946753,42.8420749 C182.66699,43.5710952 183.027103,44.4362449 183.027103,45.4375499 L183.027103,49.3373499 C183.027103,50.338655 182.66699,51.199413 181.946753,51.91965 C181.226516,52.6398869 180.365758,53 179.364453,53 L167.717752,53 Z M185.925603,53 L185.925603,34.0279997 L189.403803,34.0279997 L189.403803,41.7485498 L201.841003,41.7485498 L201.841003,34.0279997 L205.319203,34.0279997 L205.319203,53 L201.841003,53 L201.841003,45.2794499 L189.403803,45.2794499 L189.403803,53 L185.925603,53 Z" id="BITCOINCASH" fill="#FFFFFF"></path>
            </g>
        </g>
    </g>
</svg>