<?xml version="1.0" encoding="UTF-8"?>
<svg width="1170px" height="130px" viewBox="0 0 1170 130" version="1.1" xmlns="http://www.w3.org/2000/svg" xmlns:xlink="http://www.w3.org/1999/xlink">
    <!-- Generator: Sketch 43.2 (39069) - http://www.bohemiancoding.com/sketch -->
    <title>longest-chain</title>
    <desc>Created with Sketch.</desc>
    <defs>
        <rect id="path-1" x="241" y="0" width="120" height="50" rx="16"></rect>
        <rect id="path-2" x="421" y="0" width="120" height="50" rx="16"></rect>
        <rect id="path-3" x="601" y="0" width="120" height="50" rx="16"></rect>
        <rect id="path-4" x="781" y="0" width="120" height="50" rx="16"></rect>
        <rect id="path-5" x="961" y="0" width="120" height="50" rx="16"></rect>
        <rect id="path-6" x="61" y="0" width="120" height="50" rx="16"></rect>
        <linearGradient x1="0%" y1="40.5761719%" x2="100%" y2="40.5761719%" id="linearGradient-7">
            <stop stop-color="#343A40" offset="0%"></stop>
            <stop stop-color="#FFFCFC" offset="100%"></stop>
        </linearGradient>
    </defs>
    <g id="Page-1" stroke="none" stroke-width="1" fill="none" fill-rule="evenodd">
        <g id="Artboard" transform="translate(0.000000, -1143.000000)">
            <g id="longest-chain" transform="translate(3.000000, 1143.000000)">
                <g id="Rectangle-6">
                    <use fill="#343A40" fill-rule="evenodd" xlink:href="#path-1"></use>
                    <rect stroke="#343A40" stroke-width="2" x="242" y="1" width="118" height="48" rx="16"></rect>
                </g>
                <g id="Rectangle-6">
                    <use fill="#343A40" fill-rule="evenodd" xlink:href="#path-2"></use>
                    <rect stroke="#343A40" stroke-width="2" x="422" y="1" width="118" height="48" rx="16"></rect>
                </g>
                <g id="Rectangle-6">
                    <use fill="#343A40" fill-rule="evenodd" xlink:href="#path-3"></use>
                    <rect stroke="#343A40" stroke-width="2" x="602" y="1" width="118" height="48" rx="16"></rect>
                </g>
                <rect id="Rectangle-6" stroke="#343A40" stroke-width="6" x="604" y="83" width="114" height="44" rx="16"></rect>
                <rect id="Rectangle-6" stroke="#343A40" stroke-width="6" x="784" y="83" width="114" height="44" rx="16"></rect>
                <g id="Rectangle-6">
                    <use fill="#343A40" fill-rule="evenodd" xlink:href="#path-4"></use>
                    <rect stroke="#343A40" stroke-width="2" x="782" y="1" width="118" height="48" rx="16"></rect>
                </g>
                <g id="Rectangle-6">
                    <use fill="#343A40" fill-rule="evenodd" xlink:href="#path-5"></use>
                    <rect stroke="#343A40" stroke-width="2" x="962" y="1" width="118" height="48" rx="16"></rect>
                </g>
                <g id="Rectangle-6">
                    <use fill="#343A40" fill-rule="evenodd" xlink:href="#path-6"></use>
                    <rect stroke="#343A40" stroke-width="2" x="62" y="1" width="118" height="48" rx="16"></rect>
                </g>
                <path d="M0,27 L1122,27" id="Line" stroke="#343A40" stroke-width="6" stroke-linecap="square"></path>
                <path d="M536.5,45.5 L603.5,87.5" id="Line" stroke="#343A40" stroke-width="6" stroke-linecap="square"></path>
                <path d="M721.5,105.5 L782,105.5" id="Line" stroke="#343A40" stroke-width="6" stroke-linecap="square"></path>
                <rect id="Rectangle-7" fill="url(#linearGradient-7)" x="1125" y="24" width="42" height="6"></rect>
            </g>
        </g>
    </g>
</svg>